<svg width="14" height="13" viewBox="0 0 14 13" fill="none" xmlns="http://www.w3.org/2000/svg">
<path d="M13.0764 5.32733C13.0218 5.15584 12.9168 5.0048 12.775 4.8939C12.6333 4.78301 12.4614 4.71742 12.2818 4.70569L9.03384 4.47839L7.82901 1.44452C7.76381 1.27679 7.64946 1.13267 7.50095 1.03105C7.35244 0.929422 7.17669 0.875031 6.99673 0.875H6.99588C6.8162 0.87532 6.64081 0.929851 6.49262 1.03146C6.34444 1.13307 6.23036 1.27703 6.16531 1.44452L4.94253 4.49591L1.71255 4.70569C1.53296 4.71742 1.36106 4.78301 1.2193 4.8939C1.07754 5.0048 0.9725 5.15584 0.917877 5.32733C0.860252 5.50126 0.856332 5.6885 0.906627 5.86469C0.956922 6.04087 1.0591 6.19783 1.19986 6.31513L3.68472 8.41547L2.94559 11.3229C2.89464 11.5187 2.90401 11.7254 2.97247 11.9158C3.04092 12.1062 3.16528 12.2716 3.32925 12.3901C3.48757 12.5053 3.67689 12.5702 3.87257 12.5763C4.06826 12.5824 4.26124 12.5294 4.42642 12.4243L6.9899 10.8004C6.99331 10.7978 6.99673 10.7961 7.00442 10.8004L9.76272 12.5478C9.91247 12.6435 10.0876 12.6917 10.2652 12.6862C10.4428 12.6807 10.6147 12.6218 10.7582 12.517C10.9068 12.4096 11.0195 12.2599 11.0815 12.0874C11.1436 11.9148 11.1521 11.7276 11.106 11.5502L10.3207 8.37402L12.7945 6.31513C12.9352 6.19783 13.0374 6.04087 13.0877 5.86469C13.138 5.6885 13.1341 5.50126 13.0764 5.32733Z" fill="#F79854"/>
</svg>
