<svg width="11" height="14" viewBox="0 0 11 14" fill="none" xmlns="http://www.w3.org/2000/svg">
<path d="M9.99995 0.5C9.86734 0.500001 9.74016 0.55268 9.64639 0.646448C9.55263 0.740216 9.49995 0.867392 9.49995 1V9.5H2.20704L4.35352 7.35355C4.39995 7.30711 4.43678 7.25199 4.46191 7.19133C4.48703 7.13066 4.49996 7.06564 4.49996 6.99998C4.49996 6.93432 4.48702 6.8693 4.46189 6.80863C4.43676 6.74797 4.39993 6.69285 4.35349 6.64642C4.30706 6.6 4.25194 6.56317 4.19127 6.53804C4.13061 6.51292 4.06559 6.49999 3.99993 6.49999C3.93426 6.49999 3.86924 6.51293 3.80858 6.53806C3.74792 6.56319 3.6928 6.60002 3.64637 6.64645L0.64637 9.64645C0.645089 9.64774 0.644021 9.64915 0.642769 9.65045C0.632546 9.66089 0.622658 9.67166 0.613366 9.68297C0.608193 9.68926 0.603691 9.69588 0.598869 9.70235C0.593956 9.70896 0.588844 9.71539 0.584252 9.72225C0.579201 9.72978 0.574806 9.73761 0.570198 9.74536C0.566491 9.75162 0.562554 9.75771 0.559105 9.76413C0.554894 9.77201 0.551308 9.78009 0.547554 9.78813C0.544381 9.79491 0.540978 9.80154 0.538094 9.80849C0.534874 9.81628 0.532265 9.82423 0.529442 9.83214C0.526772 9.83963 0.523872 9.84701 0.521553 9.85467C0.519142 9.86265 0.517357 9.87077 0.515343 9.87884C0.513421 9.88659 0.511238 9.89423 0.509667 9.90213C0.507792 9.91156 0.506646 9.92108 0.505318 9.93059C0.504403 9.93724 0.503106 9.94377 0.502449 9.9505C0.499184 9.98342 0.499184 10.0166 0.502449 10.0495C0.503106 10.0562 0.504403 10.0628 0.505318 10.0694C0.506646 10.0789 0.50779 10.0884 0.509667 10.0979C0.511238 10.1058 0.513421 10.1134 0.515343 10.1212C0.517357 10.1292 0.519142 10.1373 0.521553 10.1453C0.523872 10.153 0.526772 10.1604 0.529442 10.1679C0.532265 10.1758 0.534874 10.1837 0.538094 10.1915C0.540978 10.1985 0.544381 10.2051 0.547554 10.2119C0.551308 10.2199 0.554894 10.228 0.559105 10.2359C0.562554 10.2423 0.566491 10.2484 0.570198 10.2546C0.574806 10.2624 0.579201 10.2702 0.584252 10.2778C0.588844 10.2846 0.593956 10.291 0.598869 10.2977C0.603691 10.3041 0.608193 10.3107 0.613366 10.317C0.622658 10.3283 0.632546 10.3391 0.642769 10.3495C0.644019 10.3508 0.645089 10.3523 0.64637 10.3535L3.64637 13.3535C3.6928 13.4 3.74792 13.4368 3.80858 13.4619C3.86924 13.4871 3.93426 13.5 3.99993 13.5C4.06559 13.5 4.13061 13.4871 4.19127 13.462C4.25194 13.4368 4.30706 13.4 4.35349 13.3536C4.39993 13.3071 4.43676 13.252 4.46189 13.1914C4.48702 13.1307 4.49996 13.0657 4.49996 13C4.49996 12.9344 4.48703 12.8693 4.46191 12.8087C4.43678 12.748 4.39995 12.6929 4.35352 12.6465L2.20704 10.5H9.99995C10.1326 10.5 10.2597 10.4473 10.3535 10.3536C10.4473 10.2598 10.4999 10.1326 10.4999 10V1C10.4999 0.867392 10.4473 0.740216 10.3535 0.646448C10.2597 0.55268 10.1326 0.500001 9.99995 0.5Z" fill="#0057FF"/>
</svg>
